<svg width="24" height="24" viewBox="0 0 24 24" fill="none" xmlns="http://www.w3.org/2000/svg">
<path d="M17.001 20H6.00098C5.47054 20 4.96184 19.7893 4.58676 19.4142C4.21169 19.0391 4.00098 18.5304 4.00098 18V7C4.00098 6.46957 4.21169 5.96086 4.58676 5.58579C4.96184 5.21071 5.47054 5 6.00098 5H10.001V7H6.00098V18H17.001V14H19.001V18C19.001 18.5304 18.7903 19.0391 18.4152 19.4142C18.0401 19.7893 17.5314 20 17.001 20ZM11.701 13.707L10.291 12.293L16.584 6H13.001V4H20.001V11H18.001V7.415L11.701 13.707V13.707Z" fill="#495262"/>
</svg>
